<svg height="30" width="15" xmlns="http://www.w3.org/2000/svg" viewBox="0 0 15 30"><path fill="#77b928" fill-rule="evenodd" d="M8.76 20.02v-7.78H5.48v7.78a3.256 3.256 0 0 0-1.67 2.87c0 1.83 1.48 3.31 3.31 3.31s3.31-1.48 3.31-3.31c0-1.23-.65-2.3-1.67-2.87zm3.48-2.08V5.11C12.24 2.29 9.94 0 7.12 0 4.3 0 2 2.29 2 5.11v12.83c-1.25 1.28-2 3.03-2 4.95C0 26.81 3.19 30 7.12 30c3.92 0 7.11-3.19 7.11-7.11 0-1.92-.75-3.67-1.99-4.95zM7.11 28.03c-2.83 0-5.14-2.31-5.14-5.14 0-1.66.77-3.14 2.02-4.08v-8.14h2.22c.36 0 .66-.31.66-.67 0-.37-.3-.67-.66-.67H3.99V7.71h2.22c.36 0 .66-.29.66-.65 0-.36-.3-.65-.66-.65H3.99v-1.3c0-1.73 1.4-3.14 3.13-3.14s3.12 1.41 3.12 3.14v13.72c1.25.94 2.01 2.41 2.01 4.06 0 2.83-2.3 5.14-5.14 5.14zm0 0"/></svg>